<svg width="98" height="98" viewBox="0 0 98 98" fill="none" xmlns="http://www.w3.org/2000/svg">
<g clip-path="url(#clip0_71_2584)">
<path d="M59.1513 12.834C60.1936 13.1271 61.0767 13.8222 61.6066 14.7663C62.1365 15.7104 62.2697 16.8264 61.977 17.8687L43.8878 82.3364C43.7431 82.8528 43.498 83.3356 43.1666 83.7573C42.8352 84.179 42.424 84.5312 41.9565 84.794C41.489 85.0568 40.9743 85.2249 40.4418 85.2887C39.9093 85.3526 39.3695 85.3109 38.8531 85.1661C38.3367 85.0214 37.8539 84.7763 37.4322 84.4449C37.0105 84.1135 36.6582 83.7024 36.3955 83.2348C36.1327 82.7673 35.9646 82.2526 35.9008 81.7201C35.8369 81.1876 35.8786 80.6478 36.0233 80.1314L54.1125 15.6637C54.2572 15.1469 54.5024 14.6636 54.834 14.2415C55.1656 13.8195 55.5772 13.467 56.0452 13.2042C56.5132 12.9413 57.0285 12.7734 57.5614 12.7098C58.0944 12.6463 58.6347 12.6885 59.1513 12.834ZM29.4288 28.7876C30.1943 29.5533 30.6243 30.5917 30.6243 31.6745C30.6243 32.7572 30.1943 33.7957 29.4288 34.5614L14.9942 49.0001L29.4288 63.4346C29.8081 63.8138 30.1091 64.2639 30.3146 64.7593C30.52 65.2548 30.6258 65.7858 30.626 66.3222C30.6262 66.8585 30.5207 67.3896 30.3157 67.8852C30.1106 68.3808 29.8099 68.8311 29.4308 69.2105C29.0517 69.5899 28.6015 69.8909 28.1061 70.0963C27.6107 70.3017 27.0796 70.4076 26.5433 70.4078C26.0069 70.408 25.4758 70.3025 24.9802 70.0974C24.4846 69.8924 24.0343 69.5917 23.6549 69.2126L6.32933 51.887C5.56383 51.1212 5.13379 50.0828 5.13379 49.0001C5.13379 47.9173 5.56383 46.8789 6.32933 46.1131L23.6549 28.7876C24.4207 28.0221 25.4591 27.592 26.5418 27.592C27.6246 27.592 28.663 28.0221 29.4288 28.7876ZM68.5716 34.5614C68.1816 34.1847 67.8705 33.7341 67.6565 33.236C67.4425 32.7378 67.3299 32.202 67.3251 31.6598C67.3204 31.1176 67.4237 30.5799 67.6291 30.0781C67.8344 29.5763 68.1376 29.1203 68.521 28.7369C68.9044 28.3536 69.3603 28.0504 69.8621 27.845C70.3639 27.6397 70.9016 27.5364 71.4438 27.5411C71.986 27.5458 72.5218 27.6585 73.02 27.8725C73.5182 28.0865 73.9687 28.3976 74.3454 28.7876L91.671 46.1131C92.4365 46.8789 92.8665 47.9173 92.8665 49.0001C92.8665 50.0828 92.4365 51.1212 91.671 51.887L74.3454 69.2126C73.5792 69.9782 72.5402 70.4081 71.4571 70.4078C70.3739 70.4074 69.3352 69.9767 68.5695 69.2105C67.8039 68.4443 67.374 67.4053 67.3743 66.3222C67.3747 65.239 67.8054 64.2003 68.5716 63.4346L83.0062 49.0001L68.5716 34.5614Z" fill="white"/>
</g>
<defs>
<clipPath id="clip0_71_2584">
<rect width="98" height="98" fill="white"/>
</clipPath>
</defs>
</svg>
