<svg width="42" height="36" viewBox="0 0 42 36" fill="none" xmlns="http://www.w3.org/2000/svg">
<g clip-path="url(#clip0_44_35)">
<path d="M18.3362 16.4411C19.2771 16.053 19.9983 15.4452 20.4412 14.7241C20.8842 14.003 21.1606 13.0621 21.1606 12.0646C21.1606 11.1237 20.9941 10.2927 20.7177 9.57325C20.3846 8.85213 19.9416 8.29928 19.3321 7.91124C18.694 7.48429 17.9801 7.18355 17.2288 7.0253C16.3323 6.86691 15.4229 6.79276 14.5126 6.80381H4.43408V27.8502H14.6809C15.6217 27.8502 16.5644 27.7953 17.3936 27.4622C18.2697 27.2524 19.0974 26.8765 19.8317 26.3548C20.5528 25.9118 21.1057 25.2473 21.492 24.4163C21.88 23.6402 22.1015 22.6994 22.1015 21.5919C22.1015 20.263 21.7702 19.0989 21.1606 18.213C20.4962 17.4369 19.5536 16.8291 18.3362 16.4411ZM9.14197 10.4592H13.5168C13.9048 10.4592 14.2928 10.5141 14.6809 10.5141C15.0689 10.5141 15.4552 10.7373 15.6767 10.9022C16.0079 11.0586 16.2661 11.3365 16.3978 11.6782C16.5644 12.0096 16.6193 12.3976 16.6193 12.9522C16.6193 13.7815 16.3961 14.5026 15.8432 14.8907C15.222 15.2544 14.5148 15.4453 13.7949 15.4435H9.14197V10.4592ZM17.2288 22.9208C17.0623 23.3089 16.8408 23.5304 16.4528 23.7519C16.1197 23.9733 15.7316 24.1399 15.3453 24.1399C14.9573 24.1948 14.5143 24.1948 14.0713 24.1948H9.08702V18.4894H14.1812C15.1788 18.4894 15.9548 18.7126 16.6193 19.2105C17.2288 19.6535 17.5602 20.4845 17.5602 21.537C17.4503 22.0898 17.4503 22.5328 17.2288 22.9208ZM38.4418 17.9365C38.2186 16.8291 37.7206 15.8865 37.1111 15.0555C36.4855 14.2192 35.6934 13.5218 34.7847 13.0072C33.7293 12.5043 32.5764 12.2394 31.4074 12.2311C30.2433 12.2311 29.1359 12.4543 28.3049 12.8406C27.3585 13.2231 26.5079 13.8093 25.8136 14.5576C25.0925 15.2787 24.5396 16.108 24.1516 17.1055C23.7447 18.1269 23.5378 19.2168 23.542 20.3162C23.542 21.4803 23.7086 22.5878 24.0966 23.5853C24.4829 24.5811 25.0375 25.3572 25.647 26.1333C26.3682 26.8544 27.1408 27.4072 28.1383 27.7953C29.1779 28.2096 30.2884 28.4166 31.4074 28.4048C33.1244 28.4048 34.6181 28.0168 35.8371 27.2407C37.1111 26.4664 37.9421 25.1357 38.5516 23.2539H34.8945C34.7297 23.6969 34.3417 24.1948 33.7888 24.5829C33.2342 24.9709 32.4599 25.1924 31.6289 25.1924C30.4648 25.1924 29.5239 24.8593 28.9161 24.2498C28.3049 23.6402 27.9168 22.4779 27.9168 21.2588H38.7731C38.7731 20.0965 38.7199 18.9324 38.4418 17.9365ZM27.6936 18.6577C27.6936 18.2679 27.8602 17.8799 27.9718 17.5485C28.1366 17.1605 28.3032 16.7724 28.5796 16.496C28.9127 16.1629 29.3557 15.8315 29.7986 15.6101C30.2416 15.3869 30.7945 15.3869 31.2941 15.3869C32.2899 15.3869 33.1776 15.7199 33.6206 16.2196C34.0635 16.7724 34.4516 17.5485 34.5615 18.6577H27.6936ZM35.3942 8.24433H26.8094V10.3476H35.3942V8.24433Z" fill="black"/>
</g>
<defs>
<clipPath id="clip0_44_35">
<rect width="42" height="36" fill="white"/>
</clipPath>
</defs>
</svg>
