<svg width="117" height="98" viewBox="0 0 117 98" fill="none" xmlns="http://www.w3.org/2000/svg">
<path d="M108.686 10.605L8.42285 10.605" stroke="white" stroke-width="2.17726" stroke-linecap="round" stroke-linejoin="round"/>
<path d="M110.646 56.9806C110.646 56.9806 110.646 10.3872 58.5002 10.3872C6.46361 10.3872 6.46362 56.9806 6.46362 56.9806" stroke="white" stroke-width="2.17726" stroke-linecap="round" stroke-linejoin="round"/>
<path d="M106.182 56.9805C106.182 54.4766 108.142 52.5171 110.646 52.5171C113.041 52.5171 115 54.4766 115 56.9805C115 59.3754 113.041 61.335 110.646 61.335C108.142 61.335 106.182 59.3754 106.182 56.9805Z" fill="white" stroke="white" stroke-width="2.17726" stroke-linecap="round" stroke-linejoin="round"/>
<path d="M2.00024 56.9805C2.00024 54.4766 4.06865 52.5171 6.46364 52.5171C8.85863 52.5171 10.8182 54.4766 10.8182 56.9805C10.8182 59.3754 8.85863 61.335 6.46364 61.335C4.06865 61.335 2.00024 59.3754 2.00024 56.9805Z" fill="white" stroke="white" stroke-width="2.17726" stroke-linecap="round" stroke-linejoin="round"/>
<path d="M106.727 6.46777H114.456V14.197H106.727V6.46777Z" fill="white" stroke="white" stroke-width="2.17726" stroke-linecap="round" stroke-linejoin="round"/>
<path d="M54.6897 6.46777H62.419V14.197H54.6897V6.46777Z" fill="white" stroke="white" stroke-width="2.17726" stroke-linecap="round" stroke-linejoin="round"/>
<path d="M2.54443 6.46826H10.2737V14.1975H2.54443L2.54443 6.46826Z" fill="white" stroke="white" stroke-width="2.17726" stroke-linecap="round" stroke-linejoin="round"/>
<g clip-path="url(#clip0_71_2572)">
<path d="M59.2538 29.0173L59.2538 41.2418M56.6145 12.9984L43.3143 36.9372C39.3594 44.056 39.9246 52.2545 45.6811 58.011C46.5488 58.874 47.512 59.6353 48.5522 60.2802C49.5323 60.8943 50.2053 61.9293 50.2073 63.0862L50.2074 73.0904C50.2074 74.7577 51.5595 76.1099 53.2269 76.1099L65.2827 76.1079C65.6796 76.1082 66.0726 76.0302 66.4393 75.8785C66.8061 75.7267 67.1393 75.5042 67.4199 75.2235C67.7006 74.9429 67.9231 74.6097 68.0749 74.243C68.2266 73.8762 68.3046 73.4832 68.3043 73.0863L68.3043 63.1025C68.3043 61.9476 68.9753 60.9146 69.9513 60.3005C70.991 59.6485 71.9501 58.886 72.8285 58.013C78.587 52.2545 79.1523 44.056 75.1974 36.9372L61.8951 13.0005C61.6342 12.5282 61.2516 12.1345 60.787 11.8603C60.3224 11.5861 59.7928 11.4413 59.2534 11.4411C58.7139 11.4409 58.1842 11.5852 57.7194 11.8591C57.2546 12.133 56.8716 12.5264 56.6104 12.9984" stroke="white" stroke-width="4.31341" stroke-linecap="round" stroke-linejoin="round"/>
</g>
<defs>
<clipPath id="clip0_71_2572">
<rect width="69.0146" height="69.0146" fill="white" transform="translate(57.2419) rotate(45)"/>
</clipPath>
</defs>
</svg>
