<svg width="36" height="36" viewBox="0 0 36 36" fill="none" xmlns="http://www.w3.org/2000/svg">
<path opacity="0.3" d="M23.3402 9.5549C23.0402 9.2549 22.5752 9.2549 22.2752 9.5549C21.9752 9.8549 21.9752 10.3199 22.2752 10.6199L27.0452 15.3899C26.2025 16.2337 25.7291 17.3774 25.7291 18.5699C25.7291 19.7624 26.2025 20.9061 27.0452 21.7499L24.9302 23.8649C23.8985 22.8334 23.1901 21.5234 22.8917 20.0953C22.5933 18.6673 22.7179 17.1832 23.2502 15.8249L13.8002 6.3749C13.5002 6.0749 13.0352 6.0749 12.7352 6.3749C12.4352 6.6749 12.4352 7.1399 12.7352 7.4399L19.6352 14.3399L17.5202 16.4549L8.50518 7.4399C8.20518 7.1399 7.74017 7.1399 7.44017 7.4399C7.14017 7.7399 7.14017 8.2049 7.44017 8.5049L16.4552 17.5199L14.3402 19.6349L6.91518 12.2099C6.61518 11.9099 6.15017 11.9099 5.85017 12.2099C5.55017 12.5099 5.55017 12.9749 5.85017 13.2749L14.3402 21.7649L12.2252 23.8799L6.91518 18.5699C6.61518 18.2699 6.15017 18.2699 5.85017 18.5699C5.55017 18.8699 5.55017 19.3349 5.85017 19.6349L14.8502 28.6499C18.6602 32.4599 24.8252 32.4599 28.6352 28.6499C32.4452 24.8399 32.4452 18.6749 28.6352 14.8649L23.3402 9.5549Z" fill="white" fill-opacity="0.2"/>
<path d="M25.455 7.425L30.765 12.735C35.745 17.715 35.745 25.785 30.765 30.765C25.785 35.745 17.715 35.745 12.735 30.765L3.72 21.75C3.32932 21.3545 3.03082 20.8776 2.84581 20.3533C2.6608 19.8291 2.59384 19.2704 2.64972 18.7173C2.70561 18.1642 2.88296 17.6302 3.1691 17.1536C3.45523 16.677 3.84311 16.2694 4.305 15.96L3.72 15.375C2.265 13.92 2.265 11.535 3.72 10.065C3.96 9.825 4.245 9.615 4.53 9.45C4.20031 8.70136 4.12477 7.86537 4.31493 7.06976C4.50509 6.27415 4.95048 5.56266 5.58307 5.04401C6.21565 4.52536 7.00063 4.22807 7.81808 4.19755C8.63553 4.16703 9.4405 4.40496 10.11 4.875C10.4152 4.40487 10.8213 4.0086 11.2988 3.71495C11.7762 3.42131 12.3131 3.23766 12.8703 3.17734C13.4276 3.11701 13.9913 3.18153 14.5205 3.3662C15.0498 3.55088 15.5312 3.85107 15.93 4.245L19.695 8.01C20.0006 7.54786 20.4051 7.15941 20.8792 6.87272C21.3533 6.58602 21.8851 6.40826 22.4363 6.35228C22.9875 6.2963 23.5443 6.3635 24.0664 6.54902C24.5884 6.73454 25.0627 7.03374 25.455 7.425ZM23.34 9.555C23.04 9.255 22.575 9.255 22.275 9.555C21.975 9.855 21.975 10.32 22.275 10.62L27.045 15.39C26.2023 16.2338 25.729 17.3775 25.729 18.57C25.729 19.7625 26.2023 20.9062 27.045 21.75L24.93 23.865C23.8984 22.8335 23.1899 21.5235 22.8916 20.0954C22.5932 18.6674 22.7177 17.1833 23.25 15.825L13.8 6.375C13.5 6.075 13.035 6.075 12.735 6.375C12.435 6.675 12.435 7.14 12.735 7.44L19.635 14.34L17.52 16.455L8.505 7.44C8.205 7.14 7.74 7.14 7.44 7.44C7.14 7.74 7.14 8.205 7.44 8.505L16.455 17.52L14.34 19.635L6.915 12.21C6.615 11.91 6.15 11.91 5.85 12.21C5.55 12.51 5.55 12.975 5.85 13.275L14.34 21.765L12.225 23.88L6.915 18.57C6.615 18.27 6.15 18.27 5.85 18.57C5.55 18.87 5.55 19.335 5.85 19.635L14.85 28.65C18.66 32.46 24.825 32.46 28.635 28.65C32.445 24.84 32.445 18.675 28.635 14.865L23.34 9.555ZM1.5 25.5C1.5 30.465 5.535 34.5 10.5 34.5V32.25C6.78 32.25 3.75 29.22 3.75 25.5H1.5ZM34.5 10.5C34.5 5.535 30.465 1.5 25.5 1.5V3.75C29.22 3.75 32.25 6.78 32.25 10.5H34.5Z" fill="white" fill-opacity="0.5"/>
</svg>
