<svg width="36" height="36" viewBox="0 0 36 36" fill="none" xmlns="http://www.w3.org/2000/svg">
<path d="M26.6229 6.72998C27.2824 6.72998 27.9149 6.99196 28.3813 7.45829C28.8476 7.92463 29.1096 8.55711 29.1096 9.2166V26.6229C29.1096 27.2824 28.8476 27.9149 28.3813 28.3813C27.9149 28.8476 27.2824 29.1096 26.6229 29.1096H9.2166C8.55711 29.1096 7.92463 28.8476 7.45829 28.3813C6.99196 27.9149 6.72998 27.2824 6.72998 26.6229V9.2166C6.72998 8.55711 6.99196 7.92463 7.45829 7.45829C7.92463 6.99196 8.55711 6.72998 9.2166 6.72998H26.6229ZM26.0013 26.0013V19.4117C26.0013 18.3368 25.5743 17.3058 24.8141 16.5457C24.054 15.7856 23.0231 15.3586 21.9481 15.3586C20.8913 15.3586 19.6604 16.0051 19.0636 16.9749V15.5948H15.5948V26.0013H19.0636V19.8718C19.0636 18.9144 19.8345 18.1311 20.7918 18.1311C21.2535 18.1311 21.6962 18.3145 22.0226 18.641C22.3491 18.9674 22.5325 19.4101 22.5325 19.8718V26.0013H26.0013ZM11.554 13.6428C12.108 13.6428 12.6393 13.4227 13.031 13.031C13.4227 12.6393 13.6428 12.108 13.6428 11.554C13.6428 10.3977 12.7103 9.45283 11.554 9.45283C10.9968 9.45283 10.4623 9.67421 10.0683 10.0683C9.67421 10.4623 9.45283 10.9968 9.45283 11.554C9.45283 12.7103 10.3977 13.6428 11.554 13.6428ZM13.2822 26.0013V15.5948H9.83826V26.0013H13.2822Z" fill="black"/>
</svg>
