<svg width="36" height="36" viewBox="0 0 36 36" fill="none" xmlns="http://www.w3.org/2000/svg">
<path d="M8.88082 6.66064C7.70316 6.66064 6.57373 7.12847 5.74099 7.96121C4.90826 8.79394 4.44043 9.92337 4.44043 11.101V11.5473L17.7616 18.7208L31.0828 11.5495V11.101C31.0828 9.92337 30.615 8.79394 29.7822 7.96121C28.9495 7.12847 27.8201 6.66064 26.6424 6.66064H8.88082ZM31.0828 14.0694L18.2878 20.9587C18.1261 21.0458 17.9453 21.0913 17.7616 21.0913C17.5779 21.0913 17.3972 21.0458 17.2354 20.9587L4.44043 14.0694V24.4222C4.44043 25.5999 4.90826 26.7293 5.74099 27.5621C6.57373 28.3948 7.70316 28.8626 8.88082 28.8626H26.6424C27.8201 28.8626 28.9495 28.3948 29.7822 27.5621C30.615 26.7293 31.0828 25.5999 31.0828 24.4222V14.0694Z" fill="black"/>
</svg>
