<svg width="36" height="36" viewBox="0 0 36 36" fill="none" xmlns="http://www.w3.org/2000/svg">
<path d="M10.6564 6.72998H25.1832C26.2243 6.73064 27.2226 7.14452 27.9588 7.88072C28.695 8.61691 29.1089 9.61522 29.1096 10.6564V14.8413C29.0082 14.8349 28.9066 14.8316 28.805 14.8314C28.257 14.8285 27.7156 14.9501 27.2215 15.187C26.7274 15.4239 26.2936 15.77 25.9528 16.199C25.366 16.9276 25.0104 17.9111 24.9233 19.0164C24.9051 19.2369 24.8981 19.4573 24.9022 19.6778C24.9606 22.1818 26.3134 24.1836 28.7167 24.1836C28.851 24.1836 28.9819 24.1774 29.1096 24.1649V25.1844C29.1086 26.2254 28.6946 27.2233 27.9584 27.9593C27.2222 28.6952 26.2241 29.1089 25.1832 29.1096H10.6564C9.61522 29.1089 8.61691 28.695 7.88072 27.9588C7.14452 27.2226 6.73064 26.2243 6.72998 25.1832V10.6564C6.73064 9.61522 7.14452 8.61691 7.88072 7.88072C8.61691 7.14452 9.61522 6.73064 10.6564 6.72998ZM29.1096 22.1321V18.7428H27.0544C26.9624 20.379 27.8576 21.7641 29.1096 22.1321ZM29.1096 18.2691V15.3996C29.0058 15.3714 28.8988 15.3567 28.7913 15.3561C27.778 15.3772 27.175 16.5894 27.1004 18.2691H29.1096ZM25.0029 12.0762L25.0216 12.0725V11.9357H21.416L18.0715 19.8009L14.7245 11.9357H10.8404V12.0725L10.8578 12.0762C11.5155 12.2254 11.8487 12.4467 11.8487 13.2449V22.5946C11.8487 23.3928 11.513 23.6141 10.8565 23.7633L10.8391 23.7658V23.9026H13.4749V23.7658L13.4563 23.7633C12.7986 23.6141 12.4641 23.3928 12.4641 22.5946V13.787L16.7635 23.9038H17.0072L21.4321 13.5048V22.8246C21.3749 23.4562 21.0442 23.6514 20.4487 23.7857L20.4313 23.7894V23.925H25.0216V23.7882L25.0029 23.7857C24.4061 23.6514 24.0679 23.4562 24.012 22.8246L24.0083 13.2449H24.012C24.012 12.4467 24.3452 12.2254 25.0029 12.0762Z" fill="black"/>
</svg>
