<svg width="19" height="19" viewBox="0 0 19 19" fill="none" xmlns="http://www.w3.org/2000/svg">
<path d="M13.4744 8.56957H2.85645C2.70493 8.56957 2.55962 8.62976 2.45248 8.7369C2.34535 8.84403 2.28516 8.98934 2.28516 9.14086C2.28516 9.29237 2.34535 9.43768 2.45248 9.54482C2.55962 9.65196 2.70493 9.71215 2.85645 9.71215H13.4744L9.30744 13.878C9.20017 13.9853 9.1399 14.1308 9.1399 14.2825C9.1399 14.4342 9.20017 14.5797 9.30744 14.6869C9.41471 14.7942 9.56021 14.8545 9.71191 14.8545C9.86362 14.8545 10.0091 14.7942 10.1164 14.6869L15.258 9.54533C15.3112 9.49226 15.3534 9.42922 15.3822 9.35981C15.411 9.29041 15.4258 9.216 15.4258 9.14086C15.4258 9.06571 15.411 8.99131 15.3822 8.9219C15.3534 8.8525 15.3112 8.78945 15.258 8.73638L10.1164 3.59478C10.0091 3.48751 9.86362 3.42725 9.71191 3.42725C9.56021 3.42725 9.41471 3.48751 9.30744 3.59478C9.20017 3.70206 9.1399 3.84755 9.1399 3.99926C9.1399 4.15096 9.20017 4.29646 9.30744 4.40373L13.4744 8.56957Z" fill="black"/>
</svg>
