<svg width="19" height="19" viewBox="0 0 19 19" fill="none" xmlns="http://www.w3.org/2000/svg">
<path d="M4.80683 8.56957H15.4248C15.5763 8.56957 15.7216 8.62976 15.8288 8.7369C15.9359 8.84403 15.9961 8.98934 15.9961 9.14086C15.9961 9.29237 15.9359 9.43768 15.8288 9.54482C15.7216 9.65196 15.5763 9.71215 15.4248 9.71215H4.80683L8.97381 13.878C9.08108 13.9853 9.14135 14.1308 9.14135 14.2825C9.14135 14.4342 9.08108 14.5797 8.97381 14.6869C8.86654 14.7942 8.72104 14.8545 8.56934 14.8545C8.41763 14.8545 8.27214 14.7942 8.16486 14.6869L3.02326 9.54533C2.97006 9.49226 2.92785 9.42922 2.89905 9.35981C2.87025 9.29041 2.85542 9.216 2.85542 9.14086C2.85542 9.06571 2.87025 8.99131 2.89905 8.9219C2.92785 8.8525 2.97006 8.78945 3.02326 8.73638L8.16486 3.59478C8.27214 3.48751 8.41763 3.42725 8.56934 3.42725C8.72104 3.42725 8.86654 3.48751 8.97381 3.59478C9.08108 3.70206 9.14135 3.84755 9.14135 3.99926C9.14135 4.15096 9.08108 4.29646 8.97381 4.40373L4.80683 8.56957Z" fill="black"/>
</svg>
